<svg width="263" height="314" viewBox="0 0 263 314" fill="none" xmlns="http://www.w3.org/2000/svg">
<path d="M116.467 130.232C111.467 131.932 107.467 133.631 103.267 134.831C91.2674 138.231 82.8674 145.731 77.4674 156.831C75.3674 161.131 73.3674 165.532 70.8674 169.532C64.7674 179.632 55.3674 184.532 43.8674 185.732C42.2674 185.932 39.8674 184.532 38.7674 183.132C33.1674 175.731 32.8674 167.632 35.9674 159.232C43.7674 138.432 70.8674 119.331 93.1674 119.031C102.367 118.831 110.167 121.432 116.467 130.232Z" fill="#B37143"/>
<path d="M93.3675 2.03149C92.5675 7.03149 92.1675 11.1315 91.2675 15.2315C87.9675 29.4315 91.5675 41.7315 100.568 52.7315C109.868 64.1315 113.068 76.5315 108.168 90.7315C106.968 94.1315 105.168 95.5315 101.568 95.8315C90.2675 96.7315 82.2675 91.0315 76.8675 82.0315C65.4675 62.9315 63.2675 42.4315 70.5675 21.3315C74.0675 11.3315 80.7675 3.93149 93.3675 2.03149Z" fill="#B37143"/>
<path d="M205.667 71.2315C203.367 73.9315 201.467 76.7315 198.967 78.9315C187.767 89.1315 183.467 101.632 184.567 116.531C184.967 121.831 184.967 127.332 184.167 132.532C182.667 141.932 176.967 148.831 169.367 154.132C167.867 155.132 164.967 155.132 163.167 154.432C154.367 150.632 149.867 143.231 149.367 134.132C148.067 108.032 158.567 87.3315 179.967 72.4315C188.067 66.9315 197.367 66.8315 205.667 71.2315Z" fill="#D6A17C"/>
<path d="M114.767 92.7315C115.667 88.2315 116.267 84.8315 116.967 81.5315C119.367 71.1315 117.767 61.3315 110.267 53.7315C96.2674 39.4315 95.1674 22.8315 99.2674 4.7315C100.267 0.431495 102.167 -0.368505 105.967 0.131495C114.267 1.3315 120.767 5.5315 125.467 12.1315C139.767 32.1315 141.867 53.7315 132.067 76.2315C128.867 83.6315 123.367 89.4315 114.767 92.7315Z" fill="#D6A17C"/>
<path d="M173.967 158.431C177.467 155.331 179.967 153.331 182.367 151.231C191.167 143.031 194.667 132.931 192.367 121.131C188.367 101.531 198.167 87.6315 211.367 75.3315C212.367 74.4315 215.767 74.7315 217.167 75.8315C225.567 82.1315 228.367 91.3315 228.167 101.131C227.667 123.631 217.967 141.631 199.167 154.131C192.067 158.631 184.367 160.531 173.967 158.431Z" fill="#B37143"/>
<path d="M47.1675 192.032C51.9675 190.632 55.7675 189.631 59.5675 188.431C69.5675 185.331 76.6675 178.831 79.6675 168.831C85.5675 149.231 100.567 141.031 118.567 136.431C119.967 136.031 122.867 137.731 123.567 139.231C127.167 146.531 126.467 154.132 123.667 161.532C115.667 182.832 90.9675 199.831 68.2675 199.731C60.7675 199.531 53.6675 198.132 47.1675 192.032Z" fill="#D6A17C"/>
<path d="M15.446 219.226C17.9253 217.337 20.5226 215.92 23.4742 215.094C26.4257 214.267 29.1411 214.031 31.8565 214.385C34.5719 214.74 36.8151 215.684 38.8221 217.101C40.8291 218.636 42.2459 220.761 42.9542 223.476C43.4265 225.837 43.3084 228.199 42.482 230.56C41.7736 233.039 40.593 235.164 38.9402 237.289C37.4054 239.296 35.3983 240.949 33.1552 242.248C30.912 243.546 28.5508 244.137 26.0715 244.019C25.7173 243.901 25.3631 243.546 25.009 243.074C24.6548 242.602 24.4187 242.13 24.1825 241.657C23.9464 241.185 23.8284 240.595 23.7103 240.123C23.5922 239.532 23.5922 239.06 23.5922 238.706C25.9535 238.706 28.0786 238.234 30.0856 237.289C32.0926 236.345 33.7455 235.164 35.1622 233.629C36.5789 232.213 37.6415 230.56 38.2318 228.671C38.9402 226.9 39.0582 225.011 38.704 223.24C38.1137 221.587 37.1692 220.288 35.6345 219.344C34.2177 218.518 32.4468 217.927 30.5578 217.927C28.6689 217.809 26.6618 218.163 24.6548 218.754C22.5297 219.344 20.7588 220.288 18.9879 221.587C17.2169 222.886 15.8002 224.421 14.6196 226.073C13.439 227.726 12.6126 229.497 12.0223 231.268C11.4319 233.039 11.1958 234.81 11.0778 236.463C11.0778 238.116 11.3139 239.65 11.6681 240.949C12.0223 242.248 12.6126 243.428 13.3209 244.491C14.0293 245.553 14.7377 246.498 15.5641 247.442C16.3905 248.387 17.335 249.213 18.2795 250.158C19.224 251.102 20.1685 251.811 20.9949 252.755C22.1755 253.818 23.2381 254.998 24.1825 256.179C25.2451 257.36 26.0715 258.658 26.7799 259.957C27.4882 261.374 27.9605 262.79 28.3147 264.325C28.6689 265.86 28.6689 267.631 28.5508 269.402C28.0785 271.645 27.3702 273.652 26.3076 275.423C25.2451 277.194 24.0645 278.729 22.6477 280.027C21.231 281.326 19.6962 282.27 17.9253 282.861C16.1544 283.451 14.5015 283.923 12.6126 283.923C11.1958 283.923 9.66104 283.687 8.36236 283.215C6.94563 282.743 5.76502 282.152 4.70247 281.326C3.63992 280.5 2.69544 279.437 2.10513 278.256C1.39677 277.076 1.04258 275.659 1.04258 274.124C0.924521 273.298 1.04258 272.353 1.51483 271.291C1.86901 270.228 2.45931 269.284 3.16768 268.457C3.87605 267.631 4.70247 267.041 5.64696 266.686C6.59145 266.332 7.53594 266.214 8.48042 266.568C7.654 266.923 6.82757 267.513 6.00114 268.103C5.17472 268.811 4.58441 269.638 4.46635 270.819C3.99411 272.708 4.23023 274.36 5.05666 275.777C5.88308 277.194 7.06369 278.256 8.59849 278.965C9.7791 280.027 11.4319 280.263 13.3209 280.027C15.2099 279.791 16.8628 279.083 18.5156 277.784C19.5782 277.076 20.2865 276.249 20.8768 275.305C21.4671 274.36 21.8213 273.298 22.0574 272.353C22.2936 271.291 22.2936 270.346 22.1755 269.284C22.0574 268.221 21.8213 267.277 21.5852 266.45C20.7588 264.089 19.5782 262.082 18.0434 260.547C16.5086 259.012 14.8557 257.478 13.0848 255.943C11.3139 254.526 9.7791 252.991 8.2443 251.22C6.70951 249.568 5.5289 247.442 4.82053 244.845C4.23023 242.72 4.11217 240.477 4.34829 238.116C4.58441 235.754 5.17472 233.393 6.1192 231.032C7.06369 228.671 8.36236 226.546 9.89716 224.421C11.432 222.414 13.3209 220.643 15.446 219.226Z" fill="#D6A17C" stroke="#A8683B" stroke-miterlimit="10"/>
<path d="M53.6975 221.469C54.5239 221.115 55.4684 220.879 56.2948 220.879C57.2393 220.879 58.0658 220.997 58.7741 221.351C59.4825 221.705 60.0728 222.177 60.545 222.886C61.0173 223.594 61.2534 224.302 61.2534 225.247C61.3715 227.136 61.0173 229.025 60.1909 231.032C59.3644 233.039 58.1838 234.928 56.8852 236.699C55.4684 238.588 53.9336 240.241 52.2808 241.894C50.6279 243.428 48.9751 244.727 47.3222 245.79L45.9055 251.102C46.6138 250.158 47.4403 249.331 48.5028 248.505C49.5654 247.797 50.6279 247.206 51.6905 246.852C52.753 246.498 53.8156 246.498 54.76 246.852C55.7045 247.088 56.4129 247.797 56.8852 248.977C57.1213 249.804 57.2393 250.984 57.2393 252.401C57.1213 253.818 56.8851 255.471 56.531 257.123C56.1768 258.894 55.7045 260.665 55.2323 262.554C54.76 264.443 54.2878 266.214 53.8156 267.985C53.3433 269.756 53.1072 271.409 52.753 272.826C52.5169 274.36 52.3988 275.541 52.3988 276.485C53.8156 275.895 55.3504 274.715 56.8852 272.944C58.4199 271.173 59.7186 269.402 61.0173 267.395C62.316 265.388 63.3785 263.617 64.323 261.728C65.2675 259.957 65.8578 258.658 66.212 257.95L68.3371 258.186C67.6287 260.311 66.6842 262.436 65.6217 264.443C64.5591 266.45 63.4966 268.339 62.316 270.11C61.1353 271.881 60.0728 273.298 59.0102 274.596C57.9477 275.895 57.0032 276.84 56.1768 277.312C55.1142 278.138 54.1697 278.729 53.1072 279.083C52.0446 279.437 51.1002 279.555 50.2737 279.555C49.4473 279.437 48.6209 279.201 48.0306 278.611C47.4403 278.138 47.0861 277.312 47.0861 276.367C47.0861 274.951 47.0861 273.416 47.4403 271.645C47.6764 269.874 48.0306 268.103 48.3848 266.214C48.7389 264.325 49.2112 262.554 49.6834 260.783C50.1557 259.012 50.5099 257.36 50.864 255.943C51.2182 254.526 51.4543 253.227 51.5724 252.283C51.6905 251.338 51.6905 250.63 51.5724 250.512C50.864 250.512 50.2737 250.63 49.5654 250.984C48.9751 251.338 48.3848 251.811 47.7945 252.401C47.2041 252.991 46.6138 253.582 46.1416 254.29C45.6694 254.998 45.1971 255.589 44.7249 256.179L39.6482 276.485C39.5302 277.076 39.176 277.548 38.5857 277.784C37.9954 278.02 37.4051 278.256 36.8148 278.256C36.1064 278.374 35.5161 278.374 34.8077 278.256C34.0994 278.256 33.6271 278.138 33.2729 278.138C33.9813 274.715 34.6897 271.527 35.5161 268.457C36.2245 265.388 36.9328 262.318 37.6412 259.367C38.3496 256.415 39.0579 253.345 39.7663 250.276C40.4747 247.206 41.183 244.019 42.0095 240.595C42.3636 239.178 42.954 237.525 43.6623 235.636C44.3707 233.747 45.1971 231.858 46.1416 229.969C47.0861 228.08 48.2667 226.428 49.4473 224.893C50.746 223.358 52.1627 222.177 53.6975 221.469ZM53.9336 225.129C53.2253 226.073 52.635 227.254 52.0446 228.671C51.4543 230.087 50.9821 231.504 50.5099 233.039C50.0376 234.574 49.5654 235.991 49.3292 237.407C48.9751 238.824 48.6209 240.123 48.3848 241.185C49.6834 240.241 50.864 239.06 52.0446 237.88C53.2253 236.581 54.2878 235.282 55.2323 233.983C56.1768 232.567 57.0032 231.268 57.5935 229.851C58.1838 228.435 58.6561 227.136 58.7741 225.955C58.8922 225.129 58.7741 224.539 58.4199 224.184C58.0658 223.83 57.7116 223.594 57.1213 223.594C56.531 223.594 56.0587 223.712 55.4684 223.948C54.7601 224.302 54.2878 224.657 53.9336 225.129Z" fill="#D6A17C" stroke="#A8683B" stroke-miterlimit="10"/>
<path d="M75.539 245.79C77.7822 245.435 79.5531 245.317 80.8517 245.672C82.1504 246.026 83.0949 246.616 83.6852 247.561C84.2755 248.505 84.6297 249.568 84.7478 250.866C84.7478 252.165 84.7478 253.7 84.3936 255.234C84.1574 256.533 83.9213 258.068 83.6852 259.957C83.4491 261.728 82.9768 263.617 82.3865 265.624C81.7962 267.631 81.0879 269.52 80.1434 271.409C79.1989 273.298 77.9002 275.069 76.3654 276.485C75.0668 277.666 73.7681 278.374 72.1152 278.729C70.5804 279.083 69.0456 279.201 67.6289 278.847C66.2122 278.492 65.0316 277.902 64.0871 277.076C63.1426 276.131 62.6704 274.951 62.5523 273.534C62.1981 270.937 62.3162 268.103 63.0245 264.915C63.6148 261.728 64.5593 258.776 65.6219 256.061C66.5664 253.464 67.747 251.338 69.2818 249.568C70.8166 247.679 72.8236 246.38 75.539 245.79ZM75.4209 248.741C74.8306 249.449 74.3584 250.158 74.0042 250.866C73.65 251.575 73.532 252.165 73.4139 252.873C73.2958 253.582 73.2958 254.172 73.2958 254.88C73.2958 255.589 73.4139 256.297 73.4139 257.123C72.8236 257.242 72.3513 257.242 71.8791 257.005C71.4069 256.769 71.0527 256.533 70.6985 256.297C69.9901 259.13 69.2818 261.964 68.6915 264.915C68.1012 267.867 67.9831 270.7 68.1012 273.298C68.3373 274.715 68.9276 275.659 69.9901 275.895C71.0527 276.131 72.1152 275.659 73.1778 274.596C73.8861 273.77 74.5945 272.589 75.1848 271.173C75.7751 269.756 76.2474 268.103 76.7196 266.332C77.1918 264.561 77.546 262.79 77.9002 261.019C78.2544 259.249 78.4905 257.478 78.7266 256.061C78.8447 255.116 78.9628 254.172 79.0808 253.227C79.1989 252.283 79.0808 251.457 78.9628 250.748C78.7266 250.04 78.3725 249.449 77.9002 249.095C77.3099 248.741 76.4835 248.623 75.4209 248.741Z" fill="#D6A17C" stroke="#A8683B" stroke-miterlimit="10"/>
<path d="M88.2896 260.311C87.8173 259.957 87.4631 259.367 87.227 258.54C87.109 257.714 86.9909 256.651 87.109 255.471C87.227 254.29 87.4631 253.109 87.6993 251.811C88.0534 250.512 88.4076 249.331 88.9979 248.151C89.4702 246.97 90.0605 246.026 90.7689 245.199C91.4772 244.373 92.0675 243.783 92.894 243.546C93.8384 243.192 94.4287 243.428 94.6649 244.137C94.901 244.845 94.901 245.908 94.5468 247.206C94.3107 248.505 93.8384 249.922 93.1301 251.575C92.5398 253.227 91.8314 254.644 91.123 256.061C93.012 254.644 94.5468 252.991 95.7274 251.22C96.908 249.449 97.7345 247.915 98.3248 246.734C98.6789 246.498 99.1512 246.38 99.8596 246.38C100.568 246.38 101.276 246.616 101.985 246.852C102.693 247.088 103.283 247.442 103.756 247.797C104.228 248.151 104.464 248.623 104.346 248.977C102.929 252.637 101.512 256.415 100.214 260.193C98.9151 263.971 97.9706 267.867 97.1441 271.645C97.0261 272.589 97.0261 273.416 97.0261 274.124C97.0261 274.833 97.2622 275.305 97.7345 275.541C98.3248 275.305 99.1512 274.478 100.332 273.18C101.512 271.763 102.693 270.228 104.11 268.339C105.408 266.45 106.825 264.443 108.124 262.436C109.422 260.311 110.603 258.422 111.43 256.769C111.666 256.769 112.138 256.769 112.728 256.887C113.318 256.887 113.673 256.887 114.027 256.887C113.082 258.658 112.02 260.665 110.839 262.79C109.659 264.915 108.36 267.041 107.061 269.048C105.763 271.055 104.346 272.944 103.047 274.478C101.749 276.131 100.45 277.312 99.2692 278.02C98.3248 278.611 97.3803 278.847 96.4358 278.965C95.4913 278.965 94.6649 278.847 93.8384 278.492C93.1301 278.138 92.4217 277.548 92.0675 276.722C91.5953 275.895 91.4772 274.951 91.5953 273.888C91.8314 271.055 92.5398 267.749 93.6023 264.089C94.6649 260.429 95.9635 256.887 97.2622 253.464C96.908 254.054 96.4358 254.88 95.6093 255.825C94.901 256.769 94.0746 257.714 93.1301 258.422C92.1856 259.249 91.3592 259.839 90.4147 260.311C89.5882 260.547 88.8799 260.665 88.2896 260.311Z" fill="#D6A17C" stroke="#A8683B" stroke-miterlimit="10"/>
<path d="M116.86 224.302C117.215 223.83 117.687 223.476 118.159 223.24C118.749 223.004 119.222 222.886 119.812 222.768C120.402 222.65 120.993 222.65 121.465 222.65C121.937 222.65 122.409 222.768 122.645 222.768L120.048 235.046L127.486 234.928C127.486 236.109 127.132 236.935 126.423 237.525C125.833 237.998 125.007 238.352 124.18 238.47C123.354 238.588 122.409 238.588 121.465 238.588C120.52 238.588 119.694 238.47 119.104 238.47L111.666 273.416C112.728 272.826 113.909 271.881 115.09 270.582C116.27 269.284 117.451 267.985 118.631 266.45C119.812 265.034 120.875 263.499 121.819 261.964C122.763 260.429 123.59 259.13 124.298 257.95C124.534 257.95 125.007 257.95 125.715 257.832C126.423 257.832 126.778 257.714 127.132 257.714C126.541 259.13 125.597 260.665 124.534 262.554C123.354 264.443 122.173 266.214 120.756 268.221C119.34 270.11 117.923 271.881 116.506 273.534C115.09 275.187 113.791 276.485 112.61 277.43C111.784 278.138 110.957 278.611 110.013 278.847C109.186 279.083 108.36 279.083 107.77 278.965C107.061 278.847 106.589 278.374 106.235 277.784C105.881 277.194 105.763 276.485 105.999 275.541C107.061 269.402 108.242 263.145 109.659 257.005C111.075 250.866 112.374 244.609 113.555 238.352C113.082 238.352 112.492 238.234 111.902 238.234C111.194 238.234 110.603 238.234 110.013 238.234C109.423 238.234 108.95 238.116 108.478 237.998C108.006 237.879 107.888 237.525 107.888 237.053C107.888 236.581 108.242 236.227 108.832 235.991C109.423 235.754 110.013 235.636 110.721 235.518C111.43 235.4 112.138 235.4 112.728 235.4C113.319 235.4 113.909 235.4 114.145 235.4C114.381 234.338 114.617 233.275 114.853 232.213C115.09 231.15 115.444 230.087 115.562 229.025C115.798 227.962 116.034 227.018 116.27 226.191C116.506 225.483 116.624 224.775 116.86 224.302Z" fill="#D6A17C" stroke="#A8683B" stroke-miterlimit="10"/>
<path d="M165.856 217.101C167.626 216.51 169.397 216.156 171.168 216.038C172.939 216.038 174.71 216.274 176.245 216.747C177.78 217.337 179.196 218.163 180.377 219.226C181.558 220.406 182.384 221.823 182.856 223.594C183.565 226.31 183.565 229.143 182.856 232.095C182.148 235.164 180.849 237.998 179.078 240.713C177.307 243.428 175.064 245.908 172.349 248.033C169.633 250.158 166.8 251.693 163.73 252.637C161.723 253.227 160.189 253.346 159.126 252.873C158.064 252.401 157.355 251.693 156.883 250.748C156.529 249.804 156.411 248.623 156.647 247.324C156.883 246.026 157.355 244.845 157.945 243.665C158.89 242.956 159.952 242.366 161.015 242.012C162.078 241.657 163.258 241.185 164.321 240.713C163.967 241.776 163.494 242.838 162.904 244.019C162.314 245.199 162.314 246.262 162.786 247.206C163.258 247.679 163.967 247.915 164.911 247.679C165.856 247.442 166.682 247.206 167.39 246.734C171.05 244.491 173.884 241.539 175.891 237.998C177.898 234.456 178.842 230.796 178.724 226.9C178.724 225.837 178.488 224.893 178.252 223.948C178.016 223.004 177.544 222.177 177.071 221.469C176.599 220.761 175.891 220.17 175.064 219.698C174.238 219.226 173.293 218.99 172.231 219.108C169.633 219.108 167.272 219.816 164.911 221.233C162.55 222.65 160.543 224.421 158.772 226.428C156.765 228.671 155.112 231.032 153.577 233.511C152.16 235.991 150.862 238.588 149.799 241.185C148.737 243.783 147.91 246.498 147.202 249.213C146.494 251.929 146.021 254.526 145.549 257.123C145.431 259.131 145.313 261.138 145.431 263.145C145.549 265.152 145.785 266.923 146.375 268.575C146.966 270.228 147.792 271.763 148.855 273.18C149.917 274.597 151.452 275.659 153.341 276.367C155.82 276.958 158.064 276.958 160.307 276.367C162.432 275.659 164.557 274.715 166.446 273.298C168.335 271.881 170.106 270.346 171.641 268.575C173.175 266.804 174.592 265.152 175.773 263.617C175.418 265.624 174.71 267.513 173.648 269.284C172.585 271.055 171.286 272.708 169.87 274.124C168.335 275.541 166.682 276.84 164.911 278.02C163.022 279.083 161.251 280.027 159.244 280.618C157.355 281.208 155.466 281.562 153.577 281.562C151.688 281.562 150.035 281.208 148.501 280.618C145.785 279.673 143.66 278.02 142.007 275.659C140.472 273.298 139.292 270.7 138.702 267.985C137.639 262.79 137.757 257.478 138.938 251.929C140.236 246.38 142.243 240.949 145.077 235.754C146.139 233.747 147.438 231.74 148.855 229.851C150.271 227.962 151.924 226.191 153.695 224.539C155.466 222.886 157.355 221.469 159.362 220.17C161.487 218.872 163.612 217.927 165.856 217.101Z" fill="#D6A17C" stroke="#A8683B" stroke-miterlimit="10"/>
<path d="M190.294 245.79C192.538 245.435 194.308 245.317 195.607 245.672C196.906 246.026 197.85 246.616 198.441 247.561C199.031 248.505 199.385 249.568 199.503 250.866C199.503 252.165 199.503 253.7 199.149 255.234C198.913 256.533 198.677 258.068 198.441 259.957C198.204 261.728 197.732 263.617 197.142 265.624C196.552 267.631 195.843 269.52 194.899 271.409C193.954 273.298 192.656 275.069 191.121 276.485C189.822 277.666 188.523 278.374 186.871 278.729C185.336 279.083 183.801 279.201 182.384 278.847C180.968 278.492 179.787 277.902 178.842 277.076C177.898 276.131 177.426 274.951 177.308 273.534C176.953 270.937 177.072 268.103 177.78 264.915C178.37 261.728 179.315 258.776 180.377 256.061C181.322 253.464 182.502 251.338 184.037 249.568C185.454 247.679 187.579 246.38 190.294 245.79ZM190.058 248.741C189.468 249.449 188.996 250.158 188.642 250.866C188.287 251.575 188.169 252.165 188.051 252.873C187.933 253.582 187.933 254.172 187.933 254.88C187.933 255.589 188.051 256.297 188.051 257.123C187.461 257.242 186.989 257.242 186.516 257.005C186.044 256.769 185.69 256.533 185.336 256.297C184.627 259.13 183.919 261.964 183.329 264.915C182.738 267.867 182.62 270.7 182.738 273.298C182.975 274.715 183.565 275.659 184.627 275.895C185.69 276.131 186.753 275.659 187.815 274.596C188.523 273.77 189.232 272.589 189.822 271.173C190.412 269.756 190.885 268.103 191.357 266.332C191.829 264.561 192.183 262.79 192.538 261.019C192.892 259.249 193.128 257.478 193.364 256.061C193.482 255.116 193.6 254.172 193.718 253.227C193.836 252.283 193.718 251.457 193.6 250.748C193.364 250.04 193.01 249.449 192.538 249.095C191.947 248.741 191.121 248.623 190.058 248.741Z" fill="#D6A17C" stroke="#A8683B" stroke-miterlimit="10"/>
<path d="M204.107 252.991C204.343 251.811 204.698 250.63 205.17 249.45C205.642 248.269 206.114 247.206 206.823 246.144C207.531 245.199 208.358 244.255 209.42 243.546C210.483 242.838 211.663 242.366 213.198 242.13C214.851 242.012 216.15 242.248 217.094 242.838C218.039 243.546 218.747 244.373 219.101 245.435C219.455 246.498 219.455 247.679 219.219 248.977C218.983 250.276 218.511 251.457 217.684 252.637L213.67 251.575C213.906 251.102 214.142 250.512 214.379 249.922C214.615 249.331 214.851 248.623 214.969 248.033C215.087 247.442 215.205 246.852 215.087 246.262C215.087 245.672 214.851 245.317 214.497 245.081C213.906 244.727 213.198 244.727 212.608 245.317C211.899 245.908 211.545 246.38 211.309 246.97C210.365 249.213 209.656 251.457 209.302 253.7C208.948 255.943 208.476 258.186 207.885 260.429L213.788 260.311C213.906 260.783 213.788 261.374 213.552 262.082C213.316 262.79 212.962 263.499 212.608 264.089L207.295 264.207L203.635 279.555C203.281 280.972 202.809 282.27 202.218 283.451C201.628 284.75 200.92 285.812 200.093 286.875C199.267 287.937 198.204 288.764 197.024 289.472C195.843 290.181 194.426 290.653 192.892 290.889C191.711 291.007 190.766 290.889 189.94 290.417C189.232 290.062 188.641 289.472 188.287 288.764C187.933 288.055 187.697 287.229 187.815 286.285C187.815 285.34 188.051 284.396 188.523 283.451L194.072 280.263C193.836 280.854 193.482 281.562 193.128 282.389C192.773 283.215 192.655 284.159 192.537 284.986C192.419 285.812 192.537 286.521 192.655 287.111C192.892 287.701 193.364 288.055 194.19 288.055C194.78 288.055 195.371 287.819 195.725 287.111C196.197 286.403 196.551 285.576 196.788 284.514C197.142 283.451 197.378 282.389 197.614 281.208C197.85 280.027 198.086 279.083 198.322 278.374L204.107 252.991Z" fill="#D6A17C" stroke="#A8683B" stroke-miterlimit="10"/>
<path d="M221.581 252.991C221.817 251.811 222.171 250.63 222.643 249.45C223.116 248.269 223.588 247.206 224.296 246.144C225.005 245.199 225.831 244.255 226.894 243.546C227.956 242.838 229.137 242.366 230.672 242.13C232.324 242.012 233.623 242.248 234.568 242.838C235.512 243.546 236.221 244.373 236.575 245.435C236.929 246.498 236.929 247.679 236.693 248.977C236.457 250.276 235.984 251.457 235.158 252.637L231.144 251.575C231.38 251.102 231.616 250.512 231.852 249.922C232.088 249.331 232.324 248.623 232.443 248.033C232.561 247.442 232.679 246.852 232.561 246.262C232.561 245.672 232.324 245.317 231.97 245.081C231.38 244.727 230.672 244.727 230.081 245.317C229.373 245.908 229.019 246.38 228.783 246.97C227.838 249.213 227.13 251.457 226.776 253.7C226.421 255.943 225.949 258.186 225.359 260.429L231.262 260.311C231.38 260.783 231.262 261.374 231.026 262.082C230.79 262.79 230.436 263.499 230.081 264.089L224.769 264.207L221.109 279.555C220.755 280.972 220.282 282.27 219.692 283.451C219.102 284.75 218.393 285.812 217.567 286.875C216.74 287.937 215.678 288.764 214.497 289.472C213.317 290.181 211.9 290.653 210.365 290.889C209.185 291.007 208.24 290.889 207.414 290.417C206.705 290.062 206.115 289.472 205.761 288.764C205.407 288.055 205.17 287.229 205.289 286.285C205.289 285.34 205.525 284.396 205.997 283.451L211.546 280.263C211.31 280.854 210.955 281.562 210.601 282.389C210.247 283.215 210.129 284.159 210.011 284.986C209.893 285.812 210.011 286.521 210.129 287.111C210.365 287.701 210.837 288.055 211.664 288.055C212.254 288.055 212.844 287.819 213.199 287.111C213.671 286.403 214.025 285.576 214.261 284.514C214.615 283.451 214.851 282.389 215.088 281.208C215.324 280.027 215.56 279.083 215.796 278.374L221.581 252.991Z" fill="#D6A17C" stroke="#A8683B" stroke-miterlimit="10"/>
<path d="M241.769 247.561C242.832 246.498 244.012 245.79 245.193 245.199C246.373 244.609 247.554 244.373 248.735 244.491C249.797 244.491 250.86 244.845 251.686 245.435C252.513 246.026 253.103 246.852 253.339 248.033C253.811 249.804 253.811 251.929 253.339 254.054C252.867 256.297 252.04 258.422 250.86 260.429C249.679 262.436 248.144 264.089 246.373 265.506C244.603 266.923 242.596 267.631 240.352 267.749C240.352 268.457 240.352 269.166 240.352 270.11C240.352 271.055 240.589 271.763 240.943 272.471C241.297 273.18 241.769 273.652 242.359 274.006C242.95 274.36 243.776 274.36 244.839 273.888C246.255 273.18 247.79 272.235 249.207 270.937C250.624 269.638 251.922 268.221 253.103 266.686C254.284 265.152 255.346 263.617 256.409 262.082C257.353 260.547 258.18 259.13 258.888 257.95L261.367 258.068C260.777 259.721 259.832 261.61 258.534 263.617C257.235 265.624 255.818 267.513 254.284 269.402C252.749 271.291 251.096 272.944 249.443 274.36C247.79 275.777 246.255 276.84 244.839 277.43C243.658 278.02 242.596 278.256 241.297 278.374C240.116 278.374 239.054 278.138 237.991 277.784C237.047 277.312 236.22 276.604 235.512 275.777C234.804 274.951 234.449 273.77 234.213 272.353C233.977 271.055 233.977 269.284 234.213 267.041C234.449 264.797 234.922 262.436 235.63 260.075C236.338 257.714 237.165 255.353 238.227 252.991C239.054 250.748 240.352 248.977 241.769 247.561ZM240.707 264.561C242.005 264.443 243.186 264.089 244.13 263.381C245.075 262.672 246.019 261.964 246.728 260.901C247.436 259.957 248.026 258.894 248.499 257.714C248.971 256.533 249.325 255.471 249.561 254.526C249.679 253.936 249.915 253.227 250.033 252.401C250.151 251.575 250.27 250.866 250.151 250.158C250.151 249.449 249.915 248.859 249.679 248.387C249.443 247.915 248.971 247.679 248.262 247.679C247.318 247.797 246.492 248.505 245.665 249.686C244.839 250.984 244.012 252.401 243.304 254.054C242.596 255.707 242.005 257.596 241.533 259.485C241.179 261.492 240.825 263.145 240.707 264.561Z" fill="#D6A17C" stroke="#A8683B" stroke-miterlimit="10"/>
</svg>
